<svg id="Ebene_1" data-name="Ebene 1" xmlns="http://www.w3.org/2000/svg" viewBox="0 0 1024 1024"><defs><style>.cls-1{fill:#cf3c3b;}</style></defs><title>Zeichenfläche 1</title><path class="cls-1" d="M388.6,1023.67,637.31,197.44h177.1c51.76,0,89.85,6.51,112.64,19.54,21.81,12.37,32.23,34.83,32.23,68.36,0,27-6.19,60.23-18.23,99L893.52,542.52c-11.4,37.11-23.77,68.36-37.11,92.78-13,23.76-28.65,43-46.88,57-17.91,14-39.72,24.09-64.46,30-25.07,6.19-56,9.12-91.8,9.12H618.11L530.21,1024h0l-141.61-.33ZM701.45,582.89A51.51,51.51,0,0,0,723.91,578c7.16-3.25,13.35-9.44,19.21-18.23,5.2-8.13,10.74-19.2,16.27-33.2q8.31-20.51,17.58-53.72c8.47-26.69,14.65-48.83,18.56-65.43,3.91-16.93,5.86-29.63,5.86-38.74,0-11.07-3.58-17.91-10.42-20.84-4.88-1.95-11.39-2.93-20.18-2.93l-38.09.33-66.41,221-4.89,16.28Z"/><path class="cls-1" d="M195.56,856.83c-6.84,0-15.63-.32-16.28-.32-33.21-1.63-59.9-9.12-79.43-22.47C77.06,818.42,65.67,792.7,65,754.94c-.32-25.39,4.89-57.3,15.63-94.41L99.2,596.07H235.27l-12.69,41.67c-4.56,17.58-6.84,30.28-6.84,39.72.33,19.86,11.4,31.25,30.28,31.25h1a73.18,73.18,0,0,0,15.3-1.63l.66-.32a50.68,50.68,0,0,0,22.13-15c9.12-11.07,17.26-27.67,24.74-51.43,4.89-17.91,7.17-33.54,7.17-47.53,0-24.42-5.86-45.91-17.58-63.16-11.07-16.28-23.12-32.88-36.46-49.16-8.47-9.76-16.93-20.51-25.4-31.57a206.37,206.37,0,0,1-21.81-35.81,213.32,213.32,0,0,1-15.62-42.65,207.61,207.61,0,0,1-6.19-52.09c0-30.92,6.19-67.06,18.23-108.08,11.39-37.11,24.42-69.66,38.74-96.68,14.32-26.37,31.25-48.51,50.46-65.11a185.79,185.79,0,0,1,67.39-36.79C394.47,3.91,424.74,0,458.92,0,505.15,0,540,8.14,563.1,24.09c22.46,15.63,33.53,41.67,33.53,79.76,0,25.39-5.86,57-16.93,94.08l-19.53,64.13H422.79l14.65-43.62c4.88-17.25,7.48-30.28,7.48-39.39,0-20.18-11.06-31.58-30.6-31.58-15.3,0-28.32,5.86-38.09,17.58-9.44,11.07-16.92,28-23.43,52.41A155.66,155.66,0,0,0,347.91,237a100.72,100.72,0,0,0-1.3,17.25c0,21.49,5.53,40.37,16.28,56.32,10.09,15,22.13,30.28,35.16,45.9,8.13,9.77,16.6,20.51,25.39,31.58a246.34,246.34,0,0,1,22.46,36.46c6.84,13.35,12.37,28.65,16.93,44.93s6.84,34.83,6.84,55a347.36,347.36,0,0,1-3.91,49.48c-2.6,17.91-7.16,37.12-13,57.63-13,43.62-27,80.08-41.67,109.05C396.42,768.94,379.16,792.38,360,810a167.1,167.1,0,0,1-67.06,36.79c-26,7.16-56.65,10.74-91.48,10.74A18.09,18.09,0,0,0,195.56,856.83Z"/></svg>