<svg xmlns="http://www.w3.org/2000/svg" viewBox="0 0 532.91 532.91"><defs><style>.cls-1{fill:#052c3c;}.cls-2{fill:#e94650;}</style></defs><rect id="Square" class="cls-1" width="532.91" height="532.91"/><path id="P" class="cls-2" d="M229.51,422.38,305.9,168.62h54.39c15.9,0,27.6,2,34.6,6,6.69,3.8,9.89,10.7,9.89,21,0,8.3-1.9,18.5-5.59,30.39l-14.6,48.6c-3.5,11.39-7.3,21-11.4,28.49a55,55,0,0,1-14.4,17.5,51,51,0,0,1-19.8,9.2c-7.69,1.9-17.19,2.8-28.19,2.8H300l-27,89.88h0l-43.5-.1ZM352.08,240.69c1.38-5.28,4.21-16.68,4.21-19.48,0-3.4-1.1-5.5-3.2-6.39a16.93,16.93,0,0,0-6.2-.9l-11.69.1L314.8,281.9l-1.5,5,12.3.1a15.84,15.84,0,0,0,6.9-1.5,14.73,14.73,0,0,0,5.89-5.6c2.9-4,5.56-11.68,7.25-17.14C347.13,258,349.81,249.4,352.08,240.69Z"/><path id="S" class="cls-2" d="M216.62,186.07a31.1,31.1,0,0,0,5,17.3c3.1,4.6,6.8,9.3,10.79,14.09,2.5,3,5.1,6.3,7.8,9.7a76,76,0,0,1,6.9,11.2,74.67,74.67,0,0,1,5.2,13.8,63,63,0,0,1,2.1,16.9,106.41,106.41,0,0,1-1.2,15.19,137.28,137.28,0,0,1-4,17.7,205.71,205.71,0,0,1-12.8,33.5,76.1,76.1,0,0,1-15.69,21.29c-5.9,5.3-11.89,8.56-20.6,11.3-14.43,3.76-25.73,3.34-34.89,3s-18.4-2.8-24.4-6.9c-7-4.8-10.5-12.7-10.7-24.3-.1-7.79,1.5-17.59,4.8-29l5.7-19.8h41.79l-3.9,12.8c-1.4,5.4-2.1,9.3-2.1,12.2.1,6.1,3.34,9.46,9.3,9.6,6.14,0,9.34-2.22,12-5.2,2.34-2.7,5.3-8.5,7.6-15.8a55.67,55.67,0,0,0,2.2-14.6c0-7.5-1.8-14.09-5.4-19.39-3.4-5-7.1-10.1-11.2-15.1-2.6-3-5.2-6.3-7.8-9.7a63.23,63.23,0,0,1-6.7-11,65.57,65.57,0,0,1-4.8-13.1,63.74,63.74,0,0,1-1.9-16c0-9.5,1.9-20.6,5.6-33.2a171.25,171.25,0,0,1,11.9-29.69,71,71,0,0,1,15.5-20,57.13,57.13,0,0,1,20.7-11.3c7.89-2.4,17.19-3.6,27.69-3.6,14.2,0,24.9,2.5,32,7.4,6.9,4.8,10.29,12.8,10.29,24.5,0,7.8-1.8,17.49-5.19,28.89l-6,19.7H240.72l3.79-13.4c1.5-5.3,2.3-9.3,2.3-12.1,0-6.2-3.4-9.69-9.4-9.69a14.62,14.62,0,0,0-11.69,5.39c-2.9,3.4-4.85,8.48-6.39,13.2A44.39,44.39,0,0,0,216.62,186.07Z"/></svg>